<!-- icon666.com - MILLIONS vector ICONS FREE --><svg id="Capa_1" enable-background="new 0 0 512 512" viewBox="0 0 512 512" xmlns="http://www.w3.org/2000/svg"><g><g><g clip-rule="evenodd" fill-rule="evenodd"><path d="m37.5 67.5v377c0 16.441 13.559 30 30 30h377c16.441 0 30-13.559 30-30v-377c0-16.441-13.559-30-30-30h-377c-16.441 0-30 13.559-30 30z" fill="#70e2bd"></path><path d="m444.5 474.5h-377c-16.441 0-30-13.559-30-30v-377c0-16.441 13.559-30 30-30h377c16.441 0 30 13.559 30 30v377c0 16.441-13.559 30-30 30zm0-467h-377c-33 0-60 27-60 60v377c0 33 27 60 60 60h377c33 0 60-27 60-60v-377c0-33-27-60-60-60z" fill="#fff"></path><path d="m37.5 67.5v377c0 16.441 13.559 30 30 30h22.5c-16.441 0-30-13.559-30-30v-377c0-16.441 13.559-30 30-30h-22.5c-16.441 0-30 13.559-30 30z" fill="#0bcc89"></path></g><g><path d="m444.5 112.5h-15v-15h15zm0-30h-15v-15h15z" fill="#fff"></path></g></g><g><path d="m416.942 299.413v-71.826h19.913v-15h-54.666v15h19.753v71.826z"></path><path d="m366.567 238.754c0-14.428-12.212-26.167-27.223-26.167h-26.598l-.014 86.825 15 .002.005-31.725 27.132 31.372 11.346-9.813-21.487-24.845c12.441-2.407 21.839-12.992 21.839-25.649zm-27.255 11.167-11.571.05.004-22.384h11.6c6.625 0 12.223 5.114 12.223 11.167-.001 6.053-5.598 11.167-12.256 11.167z"></path><path d="m107.674 284.413c-7.549 0-14.829-3.059-19.472-8.183l-5.036-5.558-11.115 10.072 5.036 5.558c7.439 8.209 18.874 13.111 30.587 13.111 14.187 0 26.555-9.35 28.769-21.749 1.683-9.425-2.67-21.766-19.936-28.135-9.061-3.342-17.479-6.987-19.805-8.007-1.898-1.443-2.814-3.712-2.462-6.165.222-1.548 1.325-5.326 6.75-6.96 10.868-3.272 20.794 4.573 21.125 4.839l5.713 4.802 9.652-11.482-5.741-4.826c-.653-.549-16.211-13.38-35.076-7.695-9.358 2.819-15.977 10.173-17.271 19.191-1.209 8.426 2.441 16.53 9.527 21.15.332.216.679.405 1.041.566.414.185 10.262 4.568 21.356 8.661 7.394 2.728 11.17 6.892 10.361 11.425-.824 4.613-6.287 9.385-14.003 9.385z"></path><path d="m189.449 299.413v-71.826h19.913v-15h-54.666v15h19.753v71.826z"></path><path d="m272.508 281.273 7.473 19.801 14.034-5.296-31.206-82.691-13.367.013-31.478 82.648 14.018 5.339 7.547-19.814zm-16.414-43.495 10.753 28.495h-21.606z"></path><path d="m30 97.5v347c0 20.678 16.822 37.5 37.5 37.5h377c20.678 0 37.5-16.822 37.5-37.5v-377c0-20.678-16.822-37.5-37.5-37.5h-377c-20.678 0-37.5 16.822-37.5 37.5v15h15v-15c0-12.196 10.304-22.5 22.5-22.5h377c12.196 0 22.5 10.304 22.5 22.5v377c0 12.196-10.304 22.5-22.5 22.5h-377c-12.196 0-22.5-10.304-22.5-22.5v-347z"></path><path d="m399.5 497h15v15h-15z"></path><path d="m444.5 0h-377c-37.22 0-67.5 30.28-67.5 67.5v377c0 37.22 30.28 67.5 67.5 67.5h317v-15h-317c-28.949 0-52.5-23.551-52.5-52.5v-377c0-28.949 23.551-52.5 52.5-52.5h377c28.949 0 52.5 23.551 52.5 52.5v377c0 28.949-23.551 52.5-52.5 52.5h-15v15h15c37.22 0 67.5-30.28 67.5-67.5v-377c0-37.22-30.28-67.5-67.5-67.5z"></path></g></g></svg>